<?xml version="1.0" standalone="no"?>
<!DOCTYPE svg PUBLIC "-//W3C//DTD SVG 20010904//EN"
 "http://www.w3.org/TR/2001/REC-SVG-20010904/DTD/svg10.dtd">
<svg version="1.0" xmlns="http://www.w3.org/2000/svg"
 width="360.000000pt" height="360.000000pt" viewBox="0 0 360.000000 360.000000"
 preserveAspectRatio="xMidYMid meet">

<g transform="translate(0.000000,360.000000) scale(0.100000,-0.100000)"
fill="#000000" stroke="none">
<path d="M1433 3346 c-139 -44 -244 -182 -246 -324 0 -37 3 -82 7 -99 l8 -33
-319 0 c-182 0 -333 -4 -354 -10 -52 -15 -99 -49 -134 -98 l-30 -44 -3 -161
-3 -162 1418 1 1418 0 0 150 c0 164 -10 198 -72 255 -68 64 -66 64 -436 67
l-337 3 7 27 c15 52 7 165 -16 225 -28 70 -97 145 -171 182 -106 54 -258 44
-354 -24 l-40 -28 -40 27 c-85 57 -207 76 -303 46z m175 -242 c34 -22 52 -74
52 -149 l0 -65 -76 0 c-88 0 -125 17 -149 66 -20 43 -19 73 5 112 36 59 109
75 168 36z m446 12 c68 -28 95 -101 61 -166 -23 -44 -63 -60 -151 -60 l-77 0
5 79 c5 90 22 125 71 146 41 18 50 18 91 1z"/>
<path d="M470 1402 c0 -844 -1 -835 54 -907 15 -19 48 -47 74 -62 l47 -28 508
-3 507 -3 0 891 0 890 -595 0 -595 0 0 -778z"/>
<path d="M1890 1290 l0 -891 508 3 c502 3 507 3 548 25 53 28 107 91 122 142
9 28 12 257 12 825 l0 786 -595 0 -595 0 0 -890z"/>
</g>
</svg>
